<svg xmlns="http://www.w3.org/2000/svg" version="1.0" preserveAspectRatio="xMidYMid meet" viewBox="1 0.8 718 150.2">
<metadata>
Created by potrace 1.16, written by Peter Selinger 2001-2019
</metadata>
<g transform="translate(0.000000,151.000000) scale(0.100000,-0.100000)" fill="#FFFFFF" stroke="none">
<path d="M10 1265 l0 -235 165 0 165 0 0 100 0 100 85 0 85 0 0 -475 0 -475 -80 0 -80 0 0 -140 0 -140 325 0 325 0 0 140 0 140 -80 0 -80 0 0 475 0 475 100 0 100 0 0 -100 0 -100 165 0 165 0 0 235 0 235 -680 0 -680 0 0 -235z"/>
<path d="M1500 1345 l0 -155 80 0 80 0 0 -455 0 -455 -80 0 -80 0 0 -140 0 -140 595 0 595 0 0 270 0 270 -165 0 -165 0 0 -130 0 -130 -185 0 -185 0 0 165 0 165 150 0 150 0 0 150 0 150 -150 0 -150 0 0 140 0 140 185 0 185 0 0 -105 0 -105 165 0 165 0 0 260 0 260 -595 0 -595 0 0 -155z"/>
<path d="M2850 1361 l0 -141 80 0 80 0 0 -470 0 -470 -80 0 -80 0 0 -140 0 -140 315 0 315 0 0 140 0 140 -70 0 -70 0 0 156 0 156 108 -3 c95 -4 112 -7 154 -32 70 -41 91 -93 128 -317 17 -102 33 -197 36 -212 l6 -28 219 0 219 0 0 150 0 150 -63 0 -63 0 -27 113 c-34 137 -63 202 -112 251 -20 21 -35 38 -33 39 153 89 208 176 216 338 4 80 1 107 -17 160 -41 124 -148 224 -289 271 -64 21 -87 22 -519 26 l-453 4 0 -141z m807 -166 c117 -47 149 -181 64 -266 -49 -49 -91 -59 -248 -59 l-133 0 0 176 0 177 138 -5 c97 -4 149 -11 179 -23z"/>
<path d="M4350 1361 l0 -141 80 0 80 0 0 -470 0 -470 -80 0 -80 0 0 -140 0 -140 315 0 315 0 0 140 0 140 -70 0 -70 0 0 156 0 156 108 -3 c95 -4 112 -7 154 -32 70 -41 91 -93 128 -317 17 -102 33 -197 36 -212 l6 -28 219 0 219 0 0 150 0 150 -63 0 -63 0 -27 113 c-34 138 -63 202 -112 250 -21 21 -36 39 -34 41 2 2 23 15 46 29 112 70 163 161 171 303 8 166 -48 285 -176 371 -35 24 -93 52 -130 65 -64 21 -87 22 -519 26 l-453 4 0 -141z m807 -166 c117 -47 149 -181 64 -266 -49 -49 -91 -59 -248 -59 l-133 0 0 176 0 177 138 -5 c97 -4 149 -11 179 -23z"/>
<path d="M6082 890 l-204 -610 -54 0 -54 0 0 -140 0 -140 285 0 285 0 0 140 0 140 -76 0 c-67 0 -75 2 -70 18 3 9 17 54 31 100 l26 82 224 0 224 0 26 -82 c14 -46 28 -91 31 -100 5 -16 -3 -18 -65 -18 l-71 0 0 -140 0 -140 285 0 285 0 0 140 0 140 -54 0 -54 0 -100 308 c-55 169 -145 443 -199 610 l-98 302 -200 0 -200 0 -203 -610z m468 63 l67 -213 -143 0 c-110 0 -142 3 -139 13 2 6 31 102 65 212 34 110 64 207 67 215 7 19 0 36 83 -227z"/>
</g>
</svg>